<svg width="356" height="161" viewBox="0 0 356 161" fill="none" xmlns="http://www.w3.org/2000/svg">
<ellipse cx="73.5" cy="80.5" rx="73.5" ry="80.5" fill="#4F5D75" fill-opacity="0.37"/>
<path d="M71.0001 58.9032C69.7116 58.9032 68.6667 57.8583 68.6667 56.5698V47.4302C68.6667 46.1417 69.7116 45.0968 71.0001 45.0968C72.2885 45.0968 73.3334 46.1417 73.3334 47.4302V56.5698C73.3334 57.8583 72.2885 58.9032 71.0001 58.9032Z" fill="#4C5970"/>
<path d="M59.3333 59C58.0449 59 57 57.9551 57 56.6667V47.3333C57 46.0449 58.0449 45 59.3333 45C60.6218 45 61.6667 46.0449 61.6667 47.3333V56.6667C61.6667 57.9551 60.6218 59 59.3333 59Z" fill="#4C5970"/>
<path d="M82.6667 59C81.3771 59 80.3334 57.9551 80.3334 56.6667V47.3333C80.3334 46.0449 81.3771 45 82.6667 45C83.9563 45 85 46.0449 85 47.3333V56.6667C85 57.9551 83.9563 59 82.6667 59Z" fill="#4C5970"/>
<path d="M71.0001 114.903C69.7116 114.903 68.6667 113.858 68.6667 112.57V103.43C68.6667 102.142 69.7116 101.097 71.0001 101.097C72.2885 101.097 73.3334 102.142 73.3334 103.43V112.57C73.3334 113.858 72.2885 114.903 71.0001 114.903Z" fill="#4C5970"/>
<path d="M59.3333 115C58.0449 115 57 113.955 57 112.667V103.333C57 102.045 58.0449 101 59.3333 101C60.6218 101 61.6667 102.045 61.6667 103.333V112.667C61.6667 113.955 60.6218 115 59.3333 115Z" fill="#4C5970"/>
<path d="M82.6667 115C81.3771 115 80.3334 113.955 80.3334 112.667V103.333C80.3334 102.045 81.3771 101 82.6667 101C83.9563 101 85 102.045 85 103.333V112.667C85 113.955 83.9563 115 82.6667 115Z" fill="#4C5970"/>
<path d="M47.5698 82.3333H38.4301C37.1417 82.3333 36.0968 81.2885 36.0968 80C36.0968 78.7115 37.1417 77.6667 38.4301 77.6667H47.5698C48.8583 77.6667 49.9031 78.7115 49.9031 80C49.9031 81.2885 48.8583 82.3333 47.5698 82.3333Z" fill="#4C5970"/>
<path d="M47.6667 94H38.3333C37.0449 94 36 92.9551 36 91.6667C36 90.3782 37.0449 89.3333 38.3333 89.3333H47.6667C48.9551 89.3333 50 90.3782 50 91.6667C50 92.9551 48.9551 94 47.6667 94Z" fill="#4C5970"/>
<path d="M47.6667 70.6667H38.3333C37.0449 70.6667 36 69.6218 36 68.3333C36 67.0449 37.0449 66 38.3333 66H47.6667C48.9551 66 50 67.0449 50 68.3333C50 69.6218 48.9551 70.6667 47.6667 70.6667Z" fill="#4C5970"/>
<path d="M103.569 82.3333H94.4312C93.1416 82.3333 92.0979 81.2885 92.0979 80C92.0979 78.7115 93.1416 77.6667 94.4312 77.6667H103.569C104.858 77.6667 105.902 78.7115 105.902 80C105.902 81.2885 104.858 82.3333 103.569 82.3333Z" fill="#4C5970"/>
<path d="M103.667 94H94.3333C93.0437 94 92 92.9551 92 91.6667C92 90.3782 93.0437 89.3333 94.3333 89.3333H103.667C104.956 89.3333 106 90.3782 106 91.6667C106 92.9551 104.956 94 103.667 94Z" fill="#4C5970"/>
<path d="M103.667 70.6667H94.3333C93.0437 70.6667 92 69.6218 92 68.3333C92 67.0449 93.0437 66 94.3333 66H103.667C104.956 66 106 67.0449 106 68.3333C106 69.6218 104.956 70.6667 103.667 70.6667Z" fill="#4C5970"/>
<path d="M96.6667 56.6667V103.333C96.6667 104.617 95.6167 105.667 94.3334 105.667H47.6667C46.3834 105.667 45.3334 104.617 45.3334 103.333V56.6667C45.3334 55.3833 46.3834 54.3333 47.6667 54.3333H94.3334C95.6167 54.3333 96.6667 55.3833 96.6667 56.6667Z" fill="url(#paint0_linear_4_128)"/>
<path d="M96.6667 56.6667V103.333C96.6667 104.617 95.6167 105.667 94.3334 105.667H47.6667C46.3834 105.667 45.3334 104.617 45.3334 103.333V56.6667C45.3334 55.3833 46.3834 54.3333 47.6667 54.3333H94.3334C95.6167 54.3333 96.6667 55.3833 96.6667 56.6667Z" fill="#4C5970"/>
<path d="M87.3333 70.6667V89.3333C87.3333 93.1833 84.1833 96.3333 80.3333 96.3333H61.6666C57.8166 96.3333 54.6666 93.1833 54.6666 89.3333V70.6667C54.6666 66.8167 57.8166 63.6667 61.6666 63.6667H80.3333C84.1833 63.6667 87.3333 66.8167 87.3333 70.6667Z" fill="#02081C"/>
<path d="M65.0769 94H57.9969L68.3169 79.72L58.5169 66H65.5169L72.1169 75.28L78.5969 66H85.3169L75.5169 79.52L85.9969 94H78.8769L71.9169 84.04L65.0769 94ZM101.861 94.44C99.7006 94.44 97.6873 94.08 95.8206 93.36C93.9806 92.64 92.3806 91.64 91.0206 90.36C89.6873 89.08 88.634 87.56 87.8606 85.8C87.114 84.04 86.7406 82.1067 86.7406 80C86.7406 77.8933 87.114 75.96 87.8606 74.2C88.634 72.44 89.6873 70.92 91.0206 69.64C92.3806 68.36 93.9806 67.36 95.8206 66.64C97.6873 65.92 99.714 65.56 101.901 65.56C104.327 65.56 106.501 65.9733 108.421 66.8C110.367 67.6267 111.994 68.84 113.301 70.44L109.341 74.12C107.421 71.9067 105.034 70.8 102.181 70.8C100.847 70.8 99.6073 71.0267 98.4606 71.48C97.3406 71.9333 96.3673 72.5733 95.5406 73.4C94.7406 74.2 94.114 75.16 93.6606 76.28C93.2073 77.4 92.9806 78.64 92.9806 80C92.9806 81.36 93.2073 82.6 93.6606 83.72C94.114 84.84 94.7406 85.8133 95.5406 86.64C96.3673 87.44 97.3406 88.0667 98.4606 88.52C99.6073 88.9733 100.847 89.2 102.181 89.2C105.034 89.2 107.421 88.08 109.341 85.84L113.301 89.56C111.994 91.16 110.367 92.3733 108.421 93.2C106.474 94.0267 104.287 94.44 101.861 94.44ZM131.856 81.4C131.643 79.9867 131.043 78.8667 130.056 78.04C129.096 77.1867 127.87 76.76 126.376 76.76C124.91 76.76 123.683 77.1867 122.696 78.04C121.736 78.8667 121.15 79.9867 120.936 81.4H131.856ZM127.136 94.28C125.296 94.28 123.63 94.0133 122.136 93.48C120.67 92.92 119.403 92.16 118.336 91.2C117.27 90.2133 116.443 89.04 115.856 87.68C115.296 86.32 115.016 84.84 115.016 83.24C115.016 81.64 115.296 80.1733 115.856 78.84C116.443 77.48 117.243 76.32 118.256 75.36C119.27 74.3733 120.47 73.6133 121.856 73.08C123.243 72.52 124.75 72.24 126.376 72.24C127.95 72.24 129.416 72.4933 130.776 73C132.136 73.5067 133.31 74.24 134.296 75.2C135.283 76.16 136.056 77.3333 136.616 78.72C137.176 80.08 137.456 81.6267 137.456 83.36C137.456 83.5733 137.443 83.84 137.416 84.16C137.416 84.4533 137.403 84.72 137.376 84.96H120.976C121.27 86.3733 121.976 87.4933 123.096 88.32C124.216 89.12 125.63 89.52 127.336 89.52C128.483 89.52 129.496 89.3467 130.376 89C131.256 88.6267 132.07 88.08 132.816 87.36L135.976 90.84C133.976 93.1333 131.03 94.28 127.136 94.28ZM141.813 94V64.32H147.733V94H141.813ZM153.727 94V64.32H159.647V94H153.727ZM180.841 81.4C180.627 79.9867 180.027 78.8667 179.041 78.04C178.081 77.1867 176.854 76.76 175.361 76.76C173.894 76.76 172.667 77.1867 171.681 78.04C170.721 78.8667 170.134 79.9867 169.921 81.4H180.841ZM176.121 94.28C174.281 94.28 172.614 94.0133 171.121 93.48C169.654 92.92 168.387 92.16 167.321 91.2C166.254 90.2133 165.427 89.04 164.841 87.68C164.281 86.32 164.001 84.84 164.001 83.24C164.001 81.64 164.281 80.1733 164.841 78.84C165.427 77.48 166.227 76.32 167.241 75.36C168.254 74.3733 169.454 73.6133 170.841 73.08C172.227 72.52 173.734 72.24 175.361 72.24C176.934 72.24 178.401 72.4933 179.761 73C181.121 73.5067 182.294 74.24 183.281 75.2C184.267 76.16 185.041 77.3333 185.601 78.72C186.161 80.08 186.441 81.6267 186.441 83.36C186.441 83.5733 186.427 83.84 186.401 84.16C186.401 84.4533 186.387 84.72 186.361 84.96H169.961C170.254 86.3733 170.961 87.4933 172.081 88.32C173.201 89.12 174.614 89.52 176.321 89.52C177.467 89.52 178.481 89.3467 179.361 89C180.241 88.6267 181.054 88.08 181.801 87.36L184.961 90.84C182.961 93.1333 180.014 94.28 176.121 94.28ZM196.717 94H190.797V72.52H196.437V75.44C197.957 73.3067 200.45 72.24 203.917 72.24V77.76C203.41 77.68 202.957 77.64 202.557 77.64C200.797 77.64 199.384 78.1467 198.317 79.16C197.25 80.1733 196.717 81.72 196.717 83.8V94ZM219.144 84.96H214.664C213.117 84.96 212.064 85.2133 211.504 85.72C210.97 86.2 210.704 86.8133 210.704 87.56C210.704 88.3867 211.024 89.04 211.664 89.52C212.304 90 213.197 90.24 214.344 90.24C215.437 90.24 216.41 90 217.264 89.52C218.144 89.0133 218.77 88.2533 219.144 87.24V84.96ZM212.904 94.28C211.65 94.28 210.53 94.12 209.544 93.8C208.557 93.48 207.717 93.04 207.024 92.48C206.33 91.8933 205.797 91.2 205.424 90.4C205.077 89.6 204.904 88.7333 204.904 87.8C204.904 86.8667 205.064 86.0133 205.384 85.24C205.73 84.44 206.277 83.76 207.024 83.2C207.77 82.64 208.717 82.2 209.864 81.88C211.037 81.56 212.437 81.4 214.064 81.4H219.144V81.32C219.144 79.96 218.73 78.9067 217.904 78.16C217.077 77.3867 215.797 77 214.064 77C212.917 77 211.784 77.1867 210.664 77.56C209.544 77.9067 208.597 78.3867 207.824 79L205.664 74.84C206.837 73.9867 208.237 73.3467 209.864 72.92C211.49 72.4667 213.157 72.24 214.864 72.24C218.117 72.24 220.637 73.0133 222.424 74.56C224.21 76.08 225.104 78.44 225.104 81.64V94H219.504V91.36C218.277 93.3067 216.077 94.28 212.904 94.28ZM243.034 77.52H237.594V86.6C237.594 87.56 237.834 88.2933 238.314 88.8C238.794 89.3067 239.461 89.56 240.314 89.56C241.301 89.56 242.167 89.2933 242.914 88.76L244.514 92.96C243.874 93.4133 243.114 93.7467 242.234 93.96C241.354 94.1733 240.447 94.28 239.514 94.28C237.007 94.28 235.061 93.6533 233.674 92.4C232.314 91.1467 231.634 89.2533 231.634 86.72V77.52H228.274V72.92H231.634V67.76H237.594V72.92H243.034V77.52ZM262.755 81.4C262.541 79.9867 261.941 78.8667 260.955 78.04C259.995 77.1867 258.768 76.76 257.275 76.76C255.808 76.76 254.581 77.1867 253.595 78.04C252.635 78.8667 252.048 79.9867 251.835 81.4H262.755ZM258.035 94.28C256.195 94.28 254.528 94.0133 253.035 93.48C251.568 92.92 250.301 92.16 249.235 91.2C248.168 90.2133 247.341 89.04 246.755 87.68C246.195 86.32 245.915 84.84 245.915 83.24C245.915 81.64 246.195 80.1733 246.755 78.84C247.341 77.48 248.141 76.32 249.155 75.36C250.168 74.3733 251.368 73.6133 252.755 73.08C254.141 72.52 255.648 72.24 257.275 72.24C258.848 72.24 260.315 72.4933 261.675 73C263.035 73.5067 264.208 74.24 265.195 75.2C266.181 76.16 266.955 77.3333 267.515 78.72C268.075 80.08 268.355 81.6267 268.355 83.36C268.355 83.5733 268.341 83.84 268.315 84.16C268.315 84.4533 268.301 84.72 268.275 84.96H251.875C252.168 86.3733 252.875 87.4933 253.995 88.32C255.115 89.12 256.528 89.52 258.235 89.52C259.381 89.52 260.395 89.3467 261.275 89C262.155 88.6267 262.968 88.08 263.715 87.36L266.875 90.84C264.875 93.1333 261.928 94.28 258.035 94.28ZM273.151 66H285.111C286.978 66 288.658 66.24 290.151 66.72C291.644 67.1733 292.911 67.84 293.951 68.72C295.018 69.5733 295.831 70.6267 296.391 71.88C296.951 73.1333 297.231 74.5467 297.231 76.12C297.231 77.6667 296.951 79.0667 296.391 80.32C295.831 81.5733 295.018 82.64 293.951 83.52C292.911 84.3733 291.644 85.04 290.151 85.52C288.658 85.9733 286.978 86.2 285.111 86.2H279.311V94H273.151V81.12H284.791C286.844 81.12 288.391 80.6933 289.431 79.84C290.471 78.96 290.991 77.72 290.991 76.12C290.991 74.52 290.471 73.28 289.431 72.4C288.391 71.52 286.844 71.08 284.791 71.08H273.151V66ZM315.65 94.44C313.49 94.44 311.476 94.08 309.61 93.36C307.77 92.64 306.17 91.64 304.81 90.36C303.476 89.08 302.423 87.56 301.65 85.8C300.903 84.04 300.53 82.1067 300.53 80C300.53 77.8933 300.903 75.96 301.65 74.2C302.423 72.44 303.476 70.92 304.81 69.64C306.17 68.36 307.77 67.36 309.61 66.64C311.476 65.92 313.503 65.56 315.69 65.56C318.116 65.56 320.29 65.9733 322.21 66.8C324.156 67.6267 325.783 68.84 327.09 70.44L323.13 74.12C321.21 71.9067 318.823 70.8 315.97 70.8C314.636 70.8 313.396 71.0267 312.25 71.48C311.13 71.9333 310.156 72.5733 309.33 73.4C308.53 74.2 307.903 75.16 307.45 76.28C306.996 77.4 306.77 78.64 306.77 80C306.77 81.36 306.996 82.6 307.45 83.72C307.903 84.84 308.53 85.8133 309.33 86.64C310.156 87.44 311.13 88.0667 312.25 88.52C313.396 88.9733 314.636 89.2 315.97 89.2C318.823 89.2 321.21 88.08 323.13 85.84L327.09 89.56C325.783 91.16 324.156 92.3733 322.21 93.2C320.263 94.0267 318.076 94.44 315.65 94.44ZM334.921 94H327.841L338.161 79.72L328.361 66H335.361L341.961 75.28L348.441 66H355.161L345.361 79.52L355.841 94H348.721L341.761 84.04L334.921 94Z" fill="url(#paint1_linear_4_128)"/>
<defs>
<linearGradient id="paint0_linear_4_128" x1="71" y1="54.3333" x2="71" y2="105.667" gradientUnits="userSpaceOnUse">
<stop offset="0.161458" stop-color="#EF8354"/>
<stop offset="0.333333" stop-color="white"/>
<stop offset="0.458333" stop-color="#4F5D75"/>
<stop offset="0.640625" stop-color="#4C5970"/>
<stop offset="0.8125" stop-color="#BFC0C0"/>
<stop offset="1" stop-color="#2D3142"/>
</linearGradient>
<linearGradient id="paint1_linear_4_128" x1="206.5" y1="65" x2="206.5" y2="102" gradientUnits="userSpaceOnUse">
<stop offset="0.161458" stop-color="#EF8354"/>
<stop offset="0.333333" stop-color="white"/>
<stop offset="0.458333" stop-color="#4F5D75"/>
<stop offset="0.640625" stop-color="#4C5970"/>
<stop offset="0.8125" stop-color="#BFC0C0"/>
<stop offset="1" stop-color="#2D3142"/>
</linearGradient>
</defs>
</svg>
